
<global>
amp_veltrack=0
ampeg_release=0.45
</global>

<group>
group_label=PP
lpc_hicc1=42
lpc_locc1=0

<region>
hikey=a3
hivel=127
lokey=g#3
loop_end=281073
loop_mode=loop_continuous
loop_start=105565
loop_xfade=57988
lovel=1
lpc=uNUfQWOj2MGBA/1BiJmVwYktdkAFlnE/VQsFP7/tbr86p4a+RJrcP8d6YcBRZVRAQauFPtflc8Ax3qlAxOKewMOVeUDiaCvAM4jlP2NX5765jje/UdaSP3ezi79B6uc+
lpc_rms=-45.32
pitch_keycenter=a3
sample=Soloviolin1_trill_perf5th_PP_A3.opus
</region>

<region>
hikey=a4
hivel=127
lokey=g#4
loop_end=286335
loop_mode=loop_continuous
loop_start=112588
loop_xfade=61845
lovel=1
lpc=hOPQQLkbeMEuTopBx2ZDwSnW40B9XbfAwzKOQPf9yb/YzJm/L0xIQGACacD7OiJACSUwv5mtkL/8EjVAf+44wGcSIEDGsgXA3GFAP/BO4T74u7Q9pNqMvzXgbz+yx2++
lpc_rms=-46.56
pitch_keycenter=a4
sample=Soloviolin1_trill_perf5th_PP_A4.opus
</region>

<region>
hikey=a5
hivel=127
lokey=g#5
loop_end=270159
loop_mode=loop_continuous
loop_start=104960
loop_xfade=57656
lovel=1
lpc=cn3SQEHDEsFudvpAZokWwOG6rL6qeew/4tnHv7xt7D9lgnC/uKyaPwrgcj8Icny/rWxhPzP35z8VnWQ+8/6xv5BHMkCTjV2/AUxCvWntKj8NY+M+bICfvlXiJD+aEGY/
lpc_rms=-44.54
pitch_keycenter=a5
sample=Soloviolin1_trill_perf5th_PP_A5.opus
</region>

<region>
hikey=a6
hivel=127
lokey=g#6
loop_end=275279
loop_mode=loop_continuous
loop_start=103937
loop_xfade=57093
lovel=1
lpc=flQOQUaYRMEKwAJBWg0rwBI/D0Dx2Ku9OR4ZvzFc+z9EE+i/faqWv3puUkD7AOK/RkJNQN2fy8CcGZQ/uI3HQP8zy8CWjGtA6JlHwEDME0Bee0q/IpQ1v3n7bkAuRvi/
lpc_rms=-47.07
pitch_keycenter=a6
sample=Soloviolin1_trill_perf5th_PP_A6.opus
</region>

<region>
hikey=b3
hivel=127
lokey=a#3
loop_end=286063
loop_mode=loop_continuous
loop_start=111777
loop_xfade=61400
lovel=1
lpc=yoBTQWdEEcLJYStCqqrPwcuUy0D5W7U/taJ6v/esc7/cxv8/oLhwvgJQTcBnFJdAiqhLwNKLn7+8Dr1AP5vowIp7ukCUfk3AUvNlPSbdBkAzmXG/c/t9v8CfkT8M7D69
lpc_rms=-43.60
pitch_keycenter=b3
sample=Soloviolin1_trill_perf5th_PP_B3.opus
</region>

<region>
hikey=b4
hivel=127
lokey=a#4
loop_end=282986
loop_mode=loop_continuous
loop_start=94731
loop_xfade=52036
lovel=1
lpc=BIIvQX89zcFcrt1BsGqWwSgvS0GXuT/BzTkKQZLYRMAc0yM/5bjKPe45aL/iIIY/TTFev3EsaL5HjAlAGJBLwFSAB0BIg3A/uJc7wM6sHEApfjK+r/XlPnJcB8Al4Ow/
lpc_rms=-41.16
pitch_keycenter=b4
sample=Soloviolin1_trill_perf5th_PP_B4.opus
</region>

<region>
hikey=b5
hivel=127
lokey=a#5
loop_end=285638
loop_mode=loop_continuous
loop_start=110898
loop_xfade=60917
lovel=1
lpc=vCMDQSzwHcFIA+9A3StSwCpAqz9YEhG+6EktPwRyI7/57Lg/6oQXv1IeHj+K0LW+Sj5tP36gBL9hzYI/XEPvvofQhT8BFlq/i3pDP0Z+NT6O/n49H4SQvqhDJkDGV4HA
lpc_rms=-44.10
pitch_keycenter=b5
sample=Soloviolin1_trill_perf5th_PP_B5.opus
</region>

<region>
hikey=b6
hivel=127
lokey=a#6
loop_end=283882
loop_mode=loop_continuous
loop_start=96319
loop_xfade=52909
lovel=1
lpc=GJAyQZM1g8FSSV1BS8T4wCysBEF+5PLApS6fQHxGCMD+XZG/sC/DQLtv88A31+xAuuNAwZgKZEHRaxzBI7iZQFsVh8CfSTdAp1f/PrbtBsB4fKJA9mrjwDnh00BYM3/A
lpc_rms=-43.86
pitch_keycenter=B6
sample=Soloviolin1_trill_perf5th_PP_B6.opus
</region>

<region>
hikey=c#4
hivel=127
lokey=c4
loop_end=292325
loop_mode=loop_continuous
loop_start=100114
loop_xfade=54994
lovel=1
lpc=QlhgQXwKHMLumzxCerX9wbalP0Etp1rAMZtBQMyKc8AydDdAKdKIP037hMDUQ09ADGjtvyJoFT8dq4ZACHwOwcWYCUGB04bAwvnxP4oOqb/zpB2/nOO3P5S4kr9nOQE/
lpc_rms=-42.51
pitch_keycenter=c#4
sample=Soloviolin1_trill_perf5th_PP_C#4.opus
</region>

<region>
hikey=c#5
hivel=127
lokey=c5
loop_end=285511
loop_mode=loop_continuous
loop_start=106368
loop_xfade=58428
lovel=1
lpc=ZIOzQCSQQcFN31BBtm0Xwdx20UBzJJ/A0dolQD4qR76JbC6/XsCDP23f2r8PhAdAykawvz8FFL4QmHQ/w0+mviGx4T4wTBC/P1KnPphNuD5KnNq+EZcdP3pMpL+LfZU/
lpc_rms=-46.64
pitch_keycenter=c#5
sample=Soloviolin1_trill_perf5th_PP_C#5.opus
</region>

<region>
hikey=c#6
hivel=127
lokey=c6
loop_end=293282
loop_mode=loop_continuous
loop_start=112304
loop_xfade=61689
lovel=1
lpc=BSzKQNsQ6cCHxoJAQjntv0v5mj+7pB++J+ehPoFWzD5taDE9CwzjPqqpmj3VRoS9UdCZPz548r5H8mg+Cn9vPtzCBT+oui29xs7hPrgebb5xSNI/fQGAwAB8Qj/UU8A/
lpc_rms=-46.70
pitch_keycenter=c#6
sample=Soloviolin1_trill_perf5th_PP_C#6.opus
</region>

<region>
hikey=d#4
hivel=127
lokey=d4
loop_end=286664
loop_mode=loop_continuous
loop_start=110471
loop_xfade=60682
lovel=1
lpc=jR0pQQrh4sEtxgVC0cKqwSTTBkFJv6DAx46oQKAsG8D6zdU9Jki8P3LeUMBbHVNAPcDTvgFOacBKu85A15HcwCkJtUDM9TfAn0qEP1khQL0KBZS/D1rYP1nVyL8ACzM/
lpc_rms=-45.66
pitch_keycenter=d#4
sample=Soloviolin1_trill_perf5th_PP_D#4.opus
</region>

<region>
hikey=d#5
hivel=127
lokey=d5
loop_end=287620
loop_mode=loop_continuous
loop_start=113496
loop_xfade=62344
lovel=1
lpc=bjDJQIDKVcGBj1NBNG31wAcxmECibqPAGMOIQB7z3r5Hno+/4IG6P08Hob+oUJg/NBeav3D0hL6VZDxAG2NkwHA6E0Bl9j+/69odP1LsPT7IKwTAErsHQL14J7/0YFG+
lpc_rms=-45.87
pitch_keycenter=d#5
sample=Soloviolin1_trill_perf5th_PP_D#5.opus
</region>

<region>
hikey=d#6
hivel=127
lokey=d6
loop_end=277686
loop_mode=loop_continuous
loop_start=105991
loop_xfade=58221
lovel=1
lpc=aCVTQY31lsHrFgtBdpcFQNVU0b+Re7M/CC7PP4Zz1r+MKME/j3uPPxEdK7+aKU4/MGqEP1UOt7/A4AlAbOiXv+GTKkA5+RXAek6BQLeGG8HPpZNAxrbZQHLx1cAODRI/
lpc_rms=-42.85
pitch_keycenter=d#6
sample=Soloviolin1_trill_perf5th_PP_D#6.opus
</region>

<region>
hikey=f4
hivel=127
lokey=e4
loop_end=280578
loop_mode=loop_continuous
loop_start=112168
loop_xfade=61615
lovel=1
lpc=sr8IQcgHqcFYzb5BZUluwbjixkB6q5jAo9aMQOf297/EXha/b+zcP6+1acDggnpAJ8u5v6t04r+X/oBAicGEwIXVL0AxXjO/De8+Plo4tj7lcqi/rW7tP6Rdzr8hSz0/
lpc_rms=-46.88
pitch_keycenter=f4
sample=Soloviolin1_trill_perf5th_PP_F4.opus
</region>

<region>
hikey=f5
hivel=127
lokey=e5
loop_end=285873
loop_mode=loop_continuous
loop_start=98600
loop_xfade=54162
lovel=1
lpc=UOpSQMMDosBE42BAZiA1v2z9sz7DT0W/NCuHP5bETL/Z5ao+LtKvPr3mKb+svg8/jSzYvQ/89zzb5TM/8H4kv/1B6r2w25g/4v9+v98Rvj5l7Eo/CXcHv9yehjysy2Q+
lpc_rms=-47.72
pitch_keycenter=f5
sample=Soloviolin1_trill_perf5th_PP_F5.opus
</region>

<region>
hikey=f6
hivel=127
lokey=e6
loop_end=288512
loop_mode=loop_continuous
loop_start=109485
loop_xfade=60141
lovel=1
lpc=pV0JQeBkV8GZy0BBcuHMwGOSckB4Mma/j9rrP4UGhb+PNZU/OAkWv//pRT+Ff2+/A1qrP26CjL8yTsQ/79m4v72f1z+noQjBrwI6QTKcE8Hcu5FAQFETwLgEoz18tli/
lpc_rms=-47.19
pitch_keycenter=f6
sample=Soloviolin1_trill_perf5th_PP_F6.opus
</region>

<region>
hivel=127
key=g3
loop_end=286757
loop_mode=loop_continuous
loop_start=97704
loop_xfade=53670
lovel=1
lpc=kIYtQb9P8sEEEBZCoKnIwX3330DwFLI/iq8hv7ePR7/VX1w/MzvAPche/7/auwlApLNwP2PAjsDl6bRAM9eQwE3bQ0AnhiPAA28PQBP7I7/UzLO/wMv3P89kzr8waXU/
lpc_rms=-45.72
sample=Soloviolin1_trill_perf5th_PP_G3.opus
</region>

<region>
hikey=g4
hivel=127
lokey=f#4
loop_end=290800
loop_mode=loop_continuous
loop_start=97983
loop_xfade=53823
lovel=1
lpc=dRcnQQG63sG/dwVCqxi4wXihLkGTwNfAMQqsQPmWA8DKYo6/AMhtQP/dpMBXhmRAxTVSvoS+KMAOTLVAILruwA55oEAUtG6+IMYHwCLF7j/+uT7AGeSdQMd5nMCxJhpA
lpc_rms=-42.31
pitch_keycenter=g4
sample=Soloviolin1_trill_perf5th_PP_G4.opus
</region>

<region>
hikey=g5
hivel=127
lokey=f#5
loop_end=278733
loop_mode=loop_continuous
loop_start=113162
loop_xfade=62160
lovel=1
lpc=ijVyQDnd4cAMeNVAd50uwGDJUD4jCe++ZD4JQIolNMBJ0yNA+r0rv3ocUb9QWOI/ukdiv26DCb/LFNw/H58jv5WpP78jtbE/qGhtv9yhAj/FCp++JvUsP+fOLL+04Lg+
lpc_rms=-47.50
pitch_keycenter=g5
sample=Soloviolin1_trill_perf5th_PP_G5.opus
</region>

<region>
hikey=g6
hivel=127
lokey=f#6
loop_end=276066
loop_mode=loop_continuous
loop_start=101019
loop_xfade=55491
lovel=1
lpc=nXggQbiea8F5whpB24nzv70ROr+YPSNAqLY4vyRsuj98bCDAuSkQQNcoyb/cUsM/vtAnPyVOwL9Pd25ASCIowU3zGUGS2Wu/urp+wD0QhEAM8DfA3rEqP2MeTb88qPM/
lpc_rms=-46.90
pitch_keycenter=g6
sample=Soloviolin1_trill_perf5th_PP_G6.opus
</region>
</group>

<group>
group_label=MF
lpc_hicc1=84
lpc_locc1=43

<region>
hikey=a3
hivel=127
lokey=g#3
loop_end=284591
loop_mode=loop_continuous
loop_start=111081
loop_xfade=61017
lovel=1
lpc=ne4WQaGswcFeMdBB3o5VwZn8gz+WUglAD8lpvgipp7/9/Ig/8NxlPz1hXsDFS1VAACHJvkRp+b9tTFRAagV8wGAJREA784C/2V0QvoQKVD+fH6i/9GfUP90687/6uHY/
lpc_rms=-36.68
pitch_keycenter=a3
sample=Soloviolin1_trill_perf5th_MF_A3.opus
</region>

<region>
hikey=a4
hivel=127
lokey=g#4
loop_end=274425
loop_mode=loop_continuous
loop_start=94452
loop_xfade=51883
lovel=1
lpc=aX/EQNPFYsEp6HhB7rMrwaOauUD6/JDA34GCQKzhOMC91YU/7fd5P4TYl797v12+R6TKP5XLIMAi6ldAV3kewIeljT9YShq/iOg9PgFWgj6SWGy7xBmfvm5L0DqBvW8+
lpc_rms=-33.91
pitch_keycenter=a4
sample=Soloviolin1_trill_perf5th_MF_A4.opus
</region>

<region>
hikey=a5
hivel=127
lokey=g#5
loop_end=285210
loop_mode=loop_continuous
loop_start=112320
loop_xfade=61698
lovel=1
lpc=9nW0QLtO8sCe9cBAyOsFwAkaCkDtpdq/xD1YPxz3Wr7s9nc/ehB1Pwfjr747h3079zrLP2H0ur4zOZI/7HfUPoR8o7ycvTE/VmhEv/IgjD/I2o8+DplIPjKMNb/EY+U/
lpc_rms=-35.31
pitch_keycenter=a5
sample=Soloviolin1_trill_perf5th_MF_A5.opus
</region>

<region>
hikey=a6
hivel=127
lokey=g#6
loop_end=276626
loop_mode=loop_continuous
loop_start=93874
loop_xfade=51566
lovel=1
lpc=nLAQQYmy5MD5ukdAOGeNP2S+NUCeFCw/k2IKv41THECToXy+RJr/v0N1RkBTz5m/Ui4RQDyMnsBbu4W/hwWSQKUaYsAwh6E/0WJewGFLqj/s3aM+F+Glv3YJDEAuXEu+
lpc_rms=-36.37
pitch_keycenter=a6
sample=Soloviolin1_trill_perf5th_MF_A6.opus
</region>

<region>
hikey=b3
hivel=127
lokey=a#3
loop_end=279740
loop_mode=loop_continuous
loop_start=108488
loop_xfade=59593
lovel=1
lpc=w2FPQayHCML9fRtCX5O9wVjf5EB3z+a+r9EuvSbDd79RncA//WrlvkmkEsCgeVlATXDOv504rb8T7H5AEKqawEbjk0C1KFTA8HehP34EtT/RSRLA0wyxP7TOf79+Jzw/
lpc_rms=-32.52
pitch_keycenter=b3
sample=Soloviolin1_trill_perf5th_MF_B3.opus
</region>

<region>
hikey=b4
hivel=127
lokey=a#4
loop_end=269124
loop_mode=loop_continuous
loop_start=93087
loop_xfade=51133
lovel=1
lpc=gv8RQQMTncEMEp9BfcZFwZHA1EBZfMrApvXQQKD1usDVSJdAwTzBv1e4yL9UWBJA2r0MwIUfNj9EuxtA9gBdwMHGEkC3sEi/eSMiPwWdW78dRgw+2f+TP7sgyr/cW7A/
lpc_rms=-33.18
pitch_keycenter=b4
sample=Soloviolin1_trill_perf5th_MF_B4.opus
</region>

<region>
hikey=b5
hivel=127
lokey=a#5
loop_end=275702
loop_mode=loop_continuous
loop_start=108953
loop_xfade=59848
lovel=1
lpc=vgvhQOL9FsEyHfRAx3YhwDjEkj+bRYS/hlf8P13lrL4n88M9GsfnPwbyF7+PWxc+kPQIQGb/ub8ydXA/yDTSP/x9AsBzDr0/m92+P+0SDMAn7BZA47k8PppMIz8rJqi/
lpc_rms=-33.05
pitch_keycenter=b5
sample=Soloviolin1_trill_perf5th_MF_B5.opus
</region>

<region>
hikey=b6
hivel=127
lokey=a#6
loop_end=279278
loop_mode=loop_continuous
loop_start=93796
loop_xfade=51523
lovel=1
lpc=/J7/QO9eD8HgFcJAHmrovyNAdkC2KgbAIXiLP8Q2ND9kS1jAMq/MQPXAksDzZHFAjtfswL9E9kDuJUfAfOC4Pwr0IcASONQ/MDqQPxJ23r9CcaNAIWalwDDvb0CmGay/
lpc_rms=-39.66
pitch_keycenter=B6
sample=Soloviolin1_trill_perf5th_MF_B6.opus
</region>

<region>
hikey=c#4
hivel=127
lokey=c4
loop_end=279651
loop_mode=loop_continuous
loop_start=95169
loop_xfade=52277
lovel=1
lpc=W89gQeQrGcIG9zNCLfTmwb5FF0EwhsC/A9nHP2ptLcBAJug/9QMRQOrGx8DT8KRA2l+tvhizeMDe1e5ANCEHwY9TukBk3BjAkW+/PxMbW7/SQ8O/Jhc4QNaFIMBl1I0/
lpc_rms=-30.31
pitch_keycenter=c#4
sample=Soloviolin1_trill_perf5th_MF_C#4.opus
</region>

<region>
hikey=c#5
hivel=127
lokey=c5
loop_end=288760
loop_mode=loop_continuous
loop_start=101998
loop_xfade=56028
lovel=1
lpc=3euuQHP2NsF2ETFBzlTXwMy2g0AtpoTAzIZvQKz+M8D96eU/GEvnvYdaO78u5EE/UgXVvtxAvr6qzBBAac0IwBP7PD/WZxO//EyHP1xXRL+GpT0+QZ8LPqRk477mHxQ/
lpc_rms=-36.70
pitch_keycenter=c#5
sample=Soloviolin1_trill_perf5th_MF_C#5.opus
</region>

<region>
hikey=c#6
hivel=127
lokey=c6
loop_end=269411
loop_mode=loop_continuous
loop_start=101879
loop_xfade=55963
lovel=1
lpc=osjYQNMw8MDwfKNAxAuav0oUzz8GMFi/620EQAe1Uz92jrg+BivyP9s2xr1ORnw/I44IQPqgOD5gOzq/3Rb0Pw6yOD88eSQ/EC1KP5RBHT8+U+I/YUDXvzMr4L66uANA
lpc_rms=-36.05
pitch_keycenter=c#6
sample=Soloviolin1_trill_perf5th_MF_C#6.opus
</region>

<region>
hikey=d#4
hivel=127
lokey=d4
loop_end=276899
loop_mode=loop_continuous
loop_start=95001
loop_xfade=52185
lovel=1
lpc=x/jvQIJkmMEtLqxBguxNwY1vd0DKC/W/H2UoQOB3ob+mQHO+7YaRP9H+BcCesi5AVq27vzr0O79XdxlANAwjwDC95z82u3W/QfTIPmndErxP6s++fkDOPkBXhr6gIVI+
lpc_rms=-36.50
pitch_keycenter=d#4
sample=Soloviolin1_trill_perf5th_MF_D#4.opus
</region>

<region>
hikey=d#5
hivel=127
lokey=d5
loop_end=269267
loop_mode=loop_continuous
loop_start=95112
loop_xfade=52246
lovel=1
lpc=APKuQILAOMFJmDlB+uzlwKG1jkBi+X/AFrOCQIkSNcANAt0/t751vmyIQL8/8wFA+70awJxWjj8rK/I/ndcgwHDPlT/PbWY9s+mWPECz7L0MZji+ld4OP+Yqkb0tYNO9
lpc_rms=-36.26
pitch_keycenter=d#5
sample=Soloviolin1_trill_perf5th_MF_D#5.opus
</region>

<region>
hikey=d#6
hivel=127
lokey=d6
loop_end=284386
loop_mode=loop_continuous
loop_start=108371
loop_xfade=59529
lovel=1
lpc=AQ0EQXdAFsFj/AFBvDxwwBWog0CczTi+V4x6QFIlcr6DsMM/VPAoQCbNuT+hirM/VJTnPzyKQT74g1ZAv9QyP/dVMUCwxBC/ccRbQOwOs8B66fhAiXVHwA8zGUDkN3K+
lpc_rms=-34.68
pitch_keycenter=d#6
sample=Soloviolin1_trill_perf5th_MF_D#6.opus
</region>

<region>
hikey=f4
hivel=127
lokey=e4
loop_end=280552
loop_mode=loop_continuous
loop_start=106753
loop_xfade=58640
lovel=1
lpc=+EoIQbSKqMEq2sFBuEBvwU7ih0DRgIi//0XUP3igx78vIyo+yu2AP/XkMMB+hFtA0R8LwC6Ug79HgIZALxB5wAXBlj+02YA/WOGrvmUBMb3V/Iy96C/XvZWc8j48woW+
lpc_rms=-34.85
pitch_keycenter=f4
sample=Soloviolin1_trill_perf5th_MF_F4.opus
</region>

<region>
hikey=f5
hivel=127
lokey=e5
loop_end=286554
loop_mode=loop_continuous
loop_start=111416
loop_xfade=61202
lovel=1
lpc=kOU1QEBgjsDnFFlAnlpLvxmjy71QMOa+vK6fPyCYrL8HepI/W1IsvrLRZ774I4Q+onofP/b9Yb/AVJs/9xppv7BanD6wG3I/VEeGv2M0qL3xkao/J8Vev7ob8b07sPc+
lpc_rms=-38.34
pitch_keycenter=f5
sample=Soloviolin1_trill_perf5th_MF_F5.opus
</region>

<region>
hikey=f6
hivel=127
lokey=e6
loop_end=279615
loop_mode=loop_continuous
loop_start=106444
loop_xfade=58470
lovel=1
lpc=z3+zQGFs0cDuSbpAoUO/v3YzWD//Mc0//JyIP3ekUj40usM/rT2XOkPX0D/8C/y+AK8YP7z24T/qOHG/SZfoP7U+pD6mKzjAGCNkQBOwnb/f6Mw+J1ZrPiUUNrw/sCm/
lpc_rms=-37.78
pitch_keycenter=f6
sample=Soloviolin1_trill_perf5th_MF_F6.opus
</region>

<region>
hivel=127
key=g3
loop_end=266379
loop_mode=loop_continuous
loop_start=91292
loop_xfade=50147
lovel=1
lpc=S4k3QWyS+cEBzBVC6sPCwUGp0EAZsI4/lDjlPWWI67/UAh1AUGeVv1RlJ8DL55JAnGQIwK5pCMAgGJ1AUWivwPHeqkCkapjAc6JSQOAvJL+HDwDANKFKQJ8IScA1g9g/
lpc_rms=-36.87
sample=Soloviolin1_trill_perf5th_MF_G3.opus
</region>

<region>
hikey=g4
hivel=127
lokey=f#4
loop_end=289503
loop_mode=loop_continuous
loop_start=98139
loop_xfade=53909
lovel=1
lpc=JBwPQREEu8E/htxB2cOPwZVcv0APrxbAwGJ4QNtfdsAdEwtAGKAjPkCUBcDLgBtAzpBTv5tZCsDdx45A/5aOwLhpK0BCpWe/SN6zPle/Iz4wb8G/ux8gQFscJ8BSpL8/
lpc_rms=-33.10
pitch_keycenter=g4
sample=Soloviolin1_trill_perf5th_MF_G4.opus
</region>

<region>
hikey=g5
hivel=127
lokey=f#5
loop_end=279896
loop_mode=loop_continuous
loop_start=95906
loop_xfade=52681
lovel=1
lpc=d9OyQMdfGsEuQQdBMmlswGNAtj+xFbG/DWHaPyD5pL+4+J0//juUPw4EAsB2J7g/dLIvPswa677zg6k/swWkvt9IPb5ZzzE/Y28gv9rzNj9W3xfAx1iBQHimccDNzvg/
lpc_rms=-30.65
pitch_keycenter=g5
sample=Soloviolin1_trill_perf5th_MF_G5.opus
</region>

<region>
hikey=g6
hivel=127
lokey=f#6
loop_end=263694
loop_mode=loop_continuous
loop_start=108829
loop_xfade=59781
lovel=1
lpc=QKXVQBQonsDucLBAbDOMv9G8IkBwPCxAHGgAvTFOGUAtg6Q+KakhQFtMGMBpYCpAa5yRvzmrhz/uZi4/gSakwN0iE0C9ff+/7+oUvzBMhr9noRfAvRg8v54RvL5TQAXA
lpc_rms=-38.29
pitch_keycenter=g6
sample=Soloviolin1_trill_perf5th_MF_G6.opus
</region>
</group>

<group>
group_label=FF
lpc_hicc1=127
lpc_locc1=85

<region>
hikey=a3
hivel=127
lokey=g#3
loop_end=287688
loop_mode=loop_continuous
loop_start=96567
loop_xfade=53045
lovel=1
lpc=Xqj1QGOrk8HZKZ1BYQ00wTMDKUB9e9m+g1CqPzLhxb+RIpU/bVsRP9B3QMA2fk9AG+DQv/iESr+QTUtAHZdxwG6vN0AySXG/DbzEPgtnDr/t8ec9BdDRvaoq57wskoQ+
lpc_rms=-26.46
pitch_keycenter=a3
sample=Soloviolin1_trill_perf5th_FF_A3.opus
</region>

<region>
hikey=a4
hivel=127
lokey=g#4
loop_end=286274
loop_mode=loop_continuous
loop_start=96816
loop_xfade=53182
lovel=1
lpc=BqaPQJ3ZDMEJbgZB06mnwHiZQ0AAnlfA0ldJQCL0J8B+QApAiYdev1q8e75Wrvc+1zrCvkB6r74iOrg/S8ulvy9NUD+QeNu++N0YP/M3Jr819gM/SXm4vqFztbjBoCg+
lpc_rms=-27.75
pitch_keycenter=a4
sample=Soloviolin1_trill_perf5th_FF_A4.opus
</region>

<region>
hikey=a5
hivel=127
lokey=g#5
loop_end=282526
loop_mode=loop_continuous
loop_start=108527
loop_xfade=59615
lovel=1
lpc=bQ1fQLQmd8B+/FZA3Wa1v6vP/z/VS8K/uEjSP5jddL+znIY/NDAdPsglNz4l5iM/RVUqPjIS9j7YedA+vMAeP4297z1PPRM/Oo4Wv219fj+F0Zy+dSFQP5p+U793b6Y/
lpc_rms=-26.91
pitch_keycenter=a5
sample=Soloviolin1_trill_perf5th_FF_A5.opus
</region>

<region>
hikey=a6
hivel=127
lokey=g#6
loop_end=268134
loop_mode=loop_continuous
loop_start=94712
loop_xfade=52026
lovel=1
lpc=4NgOQdiDpsDQ1YxAbmo3PzQplECaISRAbRoEv1fPkUAtEOA/AOSJv0gJQUDTbxw/2O8/QGW7E8BzCFLAor+eQDvaNsCofoE/wSh0wI1WLT9e3U4/mt1cwNPwI0A7S8O9
lpc_rms=-24.51
pitch_keycenter=a6
sample=Soloviolin1_trill_perf5th_FF_A6.opus
</region>

<region>
hikey=b3
hivel=127
lokey=a#3
loop_end=284847
loop_mode=loop_continuous
loop_start=95910
loop_xfade=52683
lovel=1
lpc=o6caQZxNwMFTYdNB2QF9wWyBhECg+pe+eX/PP/IULcAMhwlAkbAAP+Xoi8B6cJ9AQOcKwBAe57+6HZRAv5yPwIubUkAArvm/ohmTP+EQlL6tLjQ8bansvsnr+T6rD6e8
lpc_rms=-24.21
pitch_keycenter=b3
sample=Soloviolin1_trill_perf5th_FF_B3.opus
</region>

<region>
hikey=b4
hivel=127
lokey=a#4
loop_end=280436
loop_mode=loop_continuous
loop_start=95857
loop_xfade=52655
lovel=1
lpc=RQO1QBccPsE4BjVB9qjPwLXxP0BhqUPAaVpFQCpDtr/FHvk+dhmVPkBlpb9KZ9U/99Cuvw/Wvr6CmhJAcbIKwDgIxz+nsKa/Sx3HP4JPtL/6Ris/DI3qPdXL8L5wRuk+
lpc_rms=-26.24
pitch_keycenter=b4
sample=Soloviolin1_trill_perf5th_FF_B4.opus
</region>

<region>
hikey=b5
hivel=127
lokey=a#5
loop_end=269933
loop_mode=loop_continuous
loop_start=92490
loop_xfade=50806
lovel=1
lpc=AIxkQGREnMBeT4lAn4L2v3YdXT89ELK9Ar+iPn0ZED/ng1S924szP9gImD0g21c+SeshPhkjiz7y3Dw+3KoPP9Bmdb+8JYA/zSrMOTcW9b5M/18/PpC/vnN0aT+Kll6/
lpc_rms=-26.46
pitch_keycenter=b5
sample=Soloviolin1_trill_perf5th_FF_B5.opus
</region>

<region>
hikey=b6
hivel=127
lokey=a#6
loop_end=277344
loop_mode=loop_continuous
loop_start=93635
loop_xfade=51434
lovel=1
lpc=Ub8TQes6uMALolRAdWZWQE7AFUDrdwU/qYguQIexvT+8oZfAoZTlQIbeXL+SwpM/qOTYwIwbq0AxPFQ/lWokwF5SXbkqQD4/sz5IvgMUNr9xoNVAr15vwBYwQD94lwRA
lpc_rms=-28.59
pitch_keycenter=B6
sample=Soloviolin1_trill_perf5th_FF_B6.opus
</region>

<region>
hikey=c#4
hivel=127
lokey=c4
loop_end=275821
loop_mode=loop_continuous
loop_start=94590
loop_xfade=51959
lovel=1
lpc=FP43QfJS58G1lPhBeXqSwZCooUBcPxO+hqCPPx7PMMCfQt4/2lYLQNWyoMBeindAwgLHv33aSL9xT4ZAeJG1wCwhkUAsFw3AZnczPyJjHz5d8tq9wJl/vxkMVT9ODfu8
lpc_rms=-23.00
pitch_keycenter=c#4
sample=Soloviolin1_trill_perf5th_FF_C#4.opus
</region>

<region>
hikey=c#5
hivel=127
lokey=c5
loop_end=282324
loop_mode=loop_continuous
loop_start=95967
loop_xfade=52715
lovel=1
lpc=KNSEQOkY+MACkuBAYauFwCajB0AplQTAmR0GQGH9u7+q7EM/ZLKrPkECNr/awxg/QdnsvlcHLr5qANU/NF67vy0B8z7NYPO9DEypPiEWK78E4ks/iyQiv0zyej6H/W4+
lpc_rms=-29.53
pitch_keycenter=c#5
sample=Soloviolin1_trill_perf5th_FF_C#5.opus
</region>

<region>
hikey=c#6
hivel=127
lokey=c6
loop_end=265005
loop_mode=loop_continuous
loop_start=93607
loop_xfade=51419
lovel=1
lpc=7SG5QKISwcBGQ51AVGCov3dyZD9YGAM+Rjq7P7AnKj8XlJ49xtLxP9zgWL0+c9A/SXf2Pt8NrT9ot1C/S15wP60dwT9YQfK+mQjUP/ESFj4pj8Q/Kx4cwOEyzT81PH0+
lpc_rms=-25.57
pitch_keycenter=c#6
sample=Soloviolin1_trill_perf5th_FF_C#6.opus
</region>

<region>
hikey=d#4
hivel=127
lokey=d4
loop_end=286723
loop_mode=loop_continuous
loop_start=97649
loop_xfade=53639
lovel=1
lpc=pQG4QBLFWMGSkV1BqvzVwOcSTj+nBRu/ZoPoP4bSjb+Nt/u8Rb2UPzEsDMAKxiBAnr3gv7/UA782zUFAQhdvwKj4IUBYg2C/QaE3P/rjc7+Xsgg/kdlJPba+4r7yo4c+
lpc_rms=-30.28
pitch_keycenter=d#4
sample=Soloviolin1_trill_perf5th_FF_D#4.opus
</region>

<region>
hikey=d#5
hivel=127
lokey=d5
loop_end=287110
loop_mode=loop_continuous
loop_start=97793
loop_xfade=53718
lovel=1
lpc=8hF+QPts68A3xdFABWFYwJm8zj+9js2/I3TfP1tao7+d9qU/R6/avnfPub1EjoA/nuKivwwQWz6s3Kw/IGuUv99mDL7fC1I/AfeAvqtMm73FyJA+aocCvywhFT+EOnm+
lpc_rms=-29.47
pitch_keycenter=d#5
sample=Soloviolin1_trill_perf5th_FF_D#5.opus
</region>

<region>
hikey=d#6
hivel=127
lokey=d6
loop_end=276567
loop_mode=loop_continuous
loop_start=92988
loop_xfade=51079
lovel=1
lpc=4ZmeQLn0mMAT939Adpm5vi5PrT8X83g/zmD9PxRkIT9GK6s/DMECQJKTNj8gpO4/5tixP91iCD/+9RRArKJIP/0fzT9/Rlw/G4oLQOV+LsDN+FNAmYD3Ppk4CL8e96w/
lpc_rms=-25.15
pitch_keycenter=d#6
sample=Soloviolin1_trill_perf5th_FF_D#6.opus
</region>

<region>
hikey=f4
hivel=127
lokey=e4
loop_end=285013
loop_mode=loop_continuous
loop_start=96755
loop_xfade=53148
lovel=1
lpc=ULrjQIqEh8H6XIpB06oUwVB+REDS8BXA9ooHQI1xnr408ta/0oVbQHtXgcD9rihA99fdvnr01L9OeFBAywZOwDarAECeVMu+pnTCPj6cn78Wyww/ekZOP3aorb+/V0s/
lpc_rms=-27.33
pitch_keycenter=f4
sample=Soloviolin1_trill_perf5th_FF_F4.opus
</region>

<region>
hikey=f5
hivel=127
lokey=e5
loop_end=277108
loop_mode=loop_continuous
loop_start=93305
loop_xfade=51253
lovel=1
lpc=nOc0QAtmhMD0MVtAgG26vwuhdT+Ehie/bGtUP/4dU7/pz1Q/hUJlPqUL577M5TI/B1HWvb9Z7DzCfnk/XwVQv3QxvD4fU7w+dd8DvzJSFj9Rhps94gy7vmiMhj4AcqA9
lpc_rms=-25.53
pitch_keycenter=f5
sample=Soloviolin1_trill_perf5th_FF_F5.opus
</region>

<region>
hikey=f6
hivel=127
lokey=e6
loop_end=270383
loop_mode=loop_continuous
loop_start=95507
loop_xfade=52462
lovel=1
lpc=78SlQMX8iMAJyn1A6yi/PQgrXz/TbShAfB2JP30GMz+j5RBAq9vqPwBAMz873M4/v1QvP/wLLkCG0Ws/wng1P3AK9z9jEfu/95UiQCxisz5WglO/aZ3dPwwWEL+J35O+
lpc_rms=-25.67
pitch_keycenter=f6
sample=Soloviolin1_trill_perf5th_FF_F6.opus
</region>

<region>
hivel=127
key=g3
loop_end=288152
loop_mode=loop_continuous
loop_start=116651
loop_xfade=64077
lovel=1
lpc=A/IGQWHaocFp66tBUwk/wUMq5j+RXPQ8O5UOQEuAFMALgcE/3RA5P+QzX8BJ41FA9A6Jv5Yt6r/A6WRA9otjwN2pR0BV6Me/TYx5P3kdl78W/9w9aReGP0o7579lu6o/
lpc_rms=-25.94
sample=Soloviolin1_trill_perf5th_FF_G3.opus
</region>

<region>
hikey=g4
hivel=127
lokey=f#4
loop_end=273308
loop_mode=loop_continuous
loop_start=93465
loop_xfade=51341
lovel=1
lpc=hk4EQS/upcFSa7dBDAxcwXosgkDsu9u/HectQLs8tr/PfRq/erM6QMglmsCvuoBAWnDVvy5gwr/+xIlAU1uCwBMnzj/Wi/A+33OIvSsPT7/qDzG/SLgkQDT7N8BjKMM/
lpc_rms=-25.43
pitch_keycenter=g4
sample=Soloviolin1_trill_perf5th_FF_G4.opus
</region>

<region>
hikey=g5
hivel=127
lokey=f#5
loop_end=269191
loop_mode=loop_continuous
loop_start=95086
loop_xfade=52231
lovel=1
lpc=TlOUQLks5cC8qblAO+UuwI0d0T/5K4G/WErCPoBXY74bu0Y/7DR6P3tNMb9S9ps+OfnzPG1EED5ugVI/N9QxvRrgiL7TMpy8poO/PV5/kz8CqhjA87MhQAWE679LH4U/
lpc_rms=-23.70
pitch_keycenter=g5
sample=Soloviolin1_trill_perf5th_FF_G5.opus
</region>

<region>
hikey=g6
hivel=127
lokey=f#6
loop_end=272170
loop_mode=loop_continuous
loop_start=96138
loop_xfade=52809
lovel=1
lpc=spy5QPQNZ8Db75FAa00tviSQHEBZChdA5MOAP0nevj++/RRA0KC4P2ZPfL/wOe0/B9gpPhv0OD9W+28/0wpVwDG5gz9rKlm/77eAv5+CWr/VRg7AINcevGNVPL8HCQLA
lpc_rms=-26.69
pitch_keycenter=g6
sample=Soloviolin1_trill_perf5th_FF_G6.opus
</region>
</group>